<?xml version="1.0" encoding="UTF-8"?>
<!DOCTYPE svg PUBLIC "-//W3C//DTD SVG 1.1//EN" "http://www.w3.org/Graphics/SVG/1.1/DTD/svg11.dtd">
<svg xmlns="http://www.w3.org/2000/svg" version="1.1" width="130px" height="189px" style="shape-rendering:geometricPrecision; text-rendering:geometricPrecision; image-rendering:optimizeQuality; fill-rule:evenodd; clip-rule:evenodd" xmlns:xlink="http://www.w3.org/1999/xlink">
<g><path style="opacity:1" fill="#986564" d="M 6.5,0.5 C 5.08134,1.45115 3.41467,1.78448 1.5,1.5C 1.33334,59.501 1.50001,117.501 2,175.5C 3.02173,176.354 3.85506,177.354 4.5,178.5C 21.6619,179.167 38.6619,179.833 55.5,180.5C 38.9915,180.17 22.6581,180.504 6.5,181.5C 2.48186,179.791 0.14853,176.791 -0.5,172.5C -0.5,172.167 -0.5,171.833 -0.5,171.5C 0.499012,114.669 0.832346,57.6691 0.5,0.5C 2.5,0.5 4.5,0.5 6.5,0.5 Z"/></g>
<g><path style="opacity:1" fill="#422c27" d="M -0.5,-0.5 C 42.8333,-0.5 86.1667,-0.5 129.5,-0.5C 129.5,57.5 129.5,115.5 129.5,173.5C 129.167,173.5 128.833,173.5 128.5,173.5C 128.5,115.833 128.5,58.1667 128.5,0.5C 87.8333,0.5 47.1667,0.5 6.5,0.5C 4.5,0.5 2.5,0.5 0.5,0.5C 0.832346,57.6691 0.499012,114.669 -0.5,171.5C -0.5,114.167 -0.5,56.8333 -0.5,-0.5 Z"/></g>
<g><path style="opacity:1" fill="#b66864" d="M 6.5,0.5 C 47.1667,0.5 87.8333,0.5 128.5,0.5C 128.5,58.1667 128.5,115.833 128.5,173.5C 128.5,174.167 128.5,174.833 128.5,175.5C 127.833,175.833 127.167,176.167 126.5,176.5C 111.182,178.707 95.5155,179.04 79.5,177.5C 92.8333,176.833 106.167,176.167 119.5,175.5C 119.043,174.702 118.376,174.369 117.5,174.5C 119.136,173.251 120.303,171.584 121,169.5C 121.832,115.332 121.665,61.3318 120.5,7.5C 120.167,7.5 119.833,7.5 119.5,7.5C 82.3371,6.50152 45.0037,6.16818 7.5,6.5C 44.6644,5.66744 81.9978,5.16744 119.5,5C 80.4238,5.10598 41.4238,4.27265 2.5,2.5C 2.33334,58.8343 2.50001,115.168 3,171.5C 3.33333,171.833 3.66667,172.167 4,172.5C 3.52115,117.534 3.35449,62.534 3.5,7.5C 4.5,7.5 5.5,7.5 6.5,7.5C 6.16772,61.0026 6.50106,114.336 7.5,167.5C 8.16667,168.167 8.83333,168.833 9.5,169.5C 9.2965,171.39 9.96317,172.89 11.5,174C 27.5244,174.228 43.5244,174.728 59.5,175.5C 61.9288,175.585 63.9288,176.585 65.5,178.5C 66.2826,176.712 67.6159,175.712 69.5,175.5C 84.8047,174.564 100.138,174.231 115.5,174.5C 103.007,175.331 90.34,175.831 77.5,176C 75.1667,176.333 72.8333,176.667 70.5,177C 69.2164,178.297 69.3831,179.464 71,180.5C 88.0896,179.508 105.256,179.175 122.5,179.5C 106.338,180.331 90.0051,180.831 73.5,181C 71.6803,181.2 70.347,182.034 69.5,183.5C 67.629,183.859 66.129,184.859 65,186.5C 64.1841,185.177 63.0174,184.511 61.5,184.5C 59.8102,182.658 57.8102,181.325 55.5,180.5C 38.6619,179.833 21.6619,179.167 4.5,178.5C 3.85506,177.354 3.02173,176.354 2,175.5C 1.50001,117.501 1.33334,59.501 1.5,1.5C 3.41467,1.78448 5.08134,1.45115 6.5,0.5 Z"/></g>
<g><path style="opacity:1" fill="#58343a" d="M 9.5,169.5 C 10.2719,170.694 11.2719,171.694 12.5,172.5C 26.9943,173.331 41.6609,173.831 56.5,174C 57.7375,174.232 58.7375,174.732 59.5,175.5C 43.5244,174.728 27.5244,174.228 11.5,174C 9.96317,172.89 9.2965,171.39 9.5,169.5 Z"/></g>
<g><path style="opacity:1" fill="#bdb3d0" d="M 79.5,107.5 C 90.988,106.505 102.655,106.172 114.5,106.5C 114.334,116.172 114.5,125.839 115,135.5C 114.901,126.003 115.901,116.669 118,107.5C 118.667,117.5 118.667,127.5 118,137.5C 117.25,138.126 116.416,138.626 115.5,139C 117.645,139.743 117.811,140.576 116,141.5C 114.629,140.419 113.129,139.585 111.5,139C 79.151,139.161 47.151,138.328 15.5,136.5C 48.1667,136.5 80.8333,136.5 113.5,136.5C 113.5,126.833 113.5,117.167 113.5,107.5C 102.167,107.5 90.8333,107.5 79.5,107.5 Z"/></g>
<g><path style="opacity:1" fill="#bc695e" d="M 122.5,7.5 C 122.846,61.2752 123.846,115.109 125.5,169C 124.391,171.047 123.724,173.213 123.5,175.5C 122.5,175.5 121.5,175.5 120.5,175.5C 120.312,173.897 120.812,172.563 122,171.5C 122.5,116.834 122.667,62.1677 122.5,7.5 Z"/></g>
<g><path style="opacity:1" fill="#574c59" d="M 75.5,107.5 C 76.8333,107.5 78.1667,107.5 79.5,107.5C 90.8333,107.5 102.167,107.5 113.5,107.5C 113.5,117.167 113.5,126.833 113.5,136.5C 80.8333,136.5 48.1667,136.5 15.5,136.5C 15.1667,136.5 14.8333,136.5 14.5,136.5C 14.5,136.167 14.5,135.833 14.5,135.5C 14.8333,135.5 15.1667,135.5 15.5,135.5C 22.5,135.5 29.5,135.5 36.5,135.5C 37.1667,135.5 37.8333,135.5 38.5,135.5C 55.1667,135.5 71.8333,135.5 88.5,135.5C 89.1667,135.5 89.8333,135.5 90.5,135.5C 97.8333,135.5 105.167,135.5 112.5,135.5C 112.5,126.833 112.5,118.167 112.5,109.5C 100.167,108.833 87.8333,108.167 75.5,107.5 Z"/></g>
<g><path style="opacity:1" fill="#82768b" d="M 50.5,107.5 C 51.5,107.5 52.5,107.5 53.5,107.5C 40.6774,108.495 27.6774,108.829 14.5,108.5C 14.5,117.5 14.5,126.5 14.5,135.5C 14.5,135.833 14.5,136.167 14.5,136.5C 13.5073,128.35 13.1739,120.017 13.5,111.5C 13.5,110.167 13.5,108.833 13.5,107.5C 25.8333,107.5 38.1667,107.5 50.5,107.5 Z"/></g>
<g><path style="opacity:1" fill="#887c6e" d="M 112.5,109.5 C 112.5,118.167 112.5,126.833 112.5,135.5C 105.167,135.5 97.8333,135.5 90.5,135.5C 90.5,126.833 90.5,118.167 90.5,109.5C 97.8333,109.5 105.167,109.5 112.5,109.5 Z"/></g>
<g><path style="opacity:1" fill="#5c5147" d="M 72.5,103.5 C 73.5,104.833 74.5,106.167 75.5,107.5C 87.8333,108.167 100.167,108.833 112.5,109.5C 105.167,109.5 97.8333,109.5 90.5,109.5C 90.5,118.167 90.5,126.833 90.5,135.5C 89.8333,135.5 89.1667,135.5 88.5,135.5C 88.5,126.833 88.5,118.167 88.5,109.5C 71.8333,109.5 55.1667,109.5 38.5,109.5C 38.5,118.167 38.5,126.833 38.5,135.5C 37.8333,135.5 37.1667,135.5 36.5,135.5C 36.5,126.833 36.5,118.167 36.5,109.5C 29.5,109.5 22.5,109.5 15.5,109.5C 15.5,118.167 15.5,126.833 15.5,135.5C 15.1667,135.5 14.8333,135.5 14.5,135.5C 14.5,126.5 14.5,117.5 14.5,108.5C 27.6774,108.829 40.6774,108.495 53.5,107.5C 53.9321,106.29 54.5987,105.29 55.5,104.5C 55.5,105.5 55.5,106.5 55.5,107.5C 61.5092,107.666 67.5092,107.499 73.5,107C 72.6634,105.989 72.33,104.822 72.5,103.5 Z"/></g>
<g><path style="opacity:1" fill="#887a6e" d="M 36.5,135.5 C 29.5,135.5 22.5,135.5 15.5,135.5C 15.5,126.833 15.5,118.167 15.5,109.5C 22.5,109.5 29.5,109.5 36.5,109.5C 36.5,118.167 36.5,126.833 36.5,135.5 Z"/></g>
<g><path style="opacity:1" fill="#8b7e70" d="M 88.5,135.5 C 71.8333,135.5 55.1667,135.5 38.5,135.5C 38.5,126.833 38.5,118.167 38.5,109.5C 55.1667,109.5 71.8333,109.5 88.5,109.5C 88.5,118.167 88.5,126.833 88.5,135.5 Z"/></g>
<g><path style="opacity:1" fill="#57333b" d="M 120.5,7.5 C 121.665,61.3318 121.832,115.332 121,169.5C 120.303,171.584 119.136,173.251 117.5,174.5C 116.833,174.5 116.167,174.5 115.5,174.5C 100.138,174.231 84.8047,174.564 69.5,175.5C 69.9175,174.778 70.5842,174.278 71.5,174C 85.8333,173.667 100.167,173.333 114.5,173C 117.772,172.563 119.439,170.73 119.5,167.5C 120.499,114.336 120.832,61.0026 120.5,7.5 Z"/></g>
<g><path style="opacity:1" fill="#6d4546" d="M 7.5,6.5 C 45.0037,6.16818 82.3371,6.50152 119.5,7.5C 82.6629,7.16821 45.9962,7.50155 9.5,8.5C 9.5,62.1667 9.5,115.833 9.5,169.5C 8.83333,168.833 8.16667,168.167 7.5,167.5C 7.5,113.833 7.5,60.1667 7.5,6.5 Z"/></g>
<g><path style="opacity:1" fill="#bab1d6" d="M 119.5,9.5 C 119.5,62.1667 119.5,114.833 119.5,167.5C 119.439,170.73 117.772,172.563 114.5,173C 100.167,173.333 85.8333,173.667 71.5,174C 70.5842,174.278 69.9175,174.778 69.5,175.5C 67.6159,175.712 66.2826,176.712 65.5,178.5C 63.9288,176.585 61.9288,175.585 59.5,175.5C 58.7375,174.732 57.7375,174.232 56.5,174C 41.6609,173.831 26.9943,173.331 12.5,172.5C 24.1857,172.832 35.8523,172.499 47.5,171.5C 51.4624,171.058 55.1291,169.891 58.5,168C 43.6104,168.636 28.777,169.803 14,171.5C 13.228,171.355 12.5613,171.022 12,170.5C 10.8968,164.244 10.3968,157.911 10.5,151.5C 11.2934,137.995 12.2934,124.661 13.5,111.5C 13.1739,120.017 13.5073,128.35 14.5,136.5C 14.8333,136.5 15.1667,136.5 15.5,136.5C 47.151,138.328 79.151,139.161 111.5,139C 113.129,139.585 114.629,140.419 116,141.5C 117.811,140.576 117.645,139.743 115.5,139C 116.416,138.626 117.25,138.126 118,137.5C 118.667,127.5 118.667,117.5 118,107.5C 115.901,116.669 114.901,126.003 115,135.5C 114.5,125.839 114.334,116.172 114.5,106.5C 102.655,106.172 90.988,106.505 79.5,107.5C 78.1667,107.5 76.8333,107.5 75.5,107.5C 74.5,106.167 73.5,104.833 72.5,103.5C 72.5,92.1667 72.5,80.8333 72.5,69.5C 83.8333,69.5 95.1667,69.5 106.5,69.5C 107.361,61.4523 105.694,54.119 101.5,47.5C 100.647,43.9796 98.6472,41.3129 95.5,39.5C 91.8851,34.8889 87.2184,31.8889 81.5,30.5C 81.1583,29.6618 80.4916,29.3284 79.5,29.5C 59.4399,22.2231 41.9399,26.2231 27,41.5C 25.6063,43.3875 24.4396,45.3875 23.5,47.5C 21.4152,49.6845 20.4152,52.3511 20.5,55.5C 18.7773,57.78 18.1107,60.4467 18.5,63.5C 17.5318,65.6074 17.1984,67.9407 17.5,70.5C 30.5,70.5 43.5,70.5 56.5,70.5C 56.7402,81.5313 56.4069,92.5313 55.5,103.5C 55.5,103.833 55.5,104.167 55.5,104.5C 54.5987,105.29 53.9321,106.29 53.5,107.5C 52.5,107.5 51.5,107.5 50.5,107.5C 48.6394,106.42 47.9727,105.086 48.5,103.5C 47.6143,104.325 47.281,105.325 47.5,106.5C 36.585,106.82 25.7517,106.487 15,105.5C 14.3333,74.5 14.3333,43.5 15,12.5C 47.0933,13.4958 79.26,13.8291 111.5,13.5C 111.312,11.8967 111.812,10.5634 113,9.5C 115.376,10.0896 117.543,10.0896 119.5,9.5 Z"/></g>
<g><path style="opacity:1" fill="#241d26" d="M 61.5,147.5 C 60.8953,149.026 59.7286,150.026 58,150.5C 57.3333,152.833 57.3333,155.167 58,157.5C 63.2847,159.357 63.4513,160.19 58.5,160C 57.2899,158.961 56.2899,157.794 55.5,156.5C 55.3367,154.143 55.5034,151.81 56,149.5C 57.4443,147.845 59.2776,147.178 61.5,147.5 Z"/></g>
<g><path style="opacity:1" fill="#251d2a" d="M 26.5,158.5 C 24.7769,157.395 23.7769,155.728 23.5,153.5C 23.44,152.957 23.1067,152.624 22.5,152.5C 21.7022,154.078 21.2022,155.744 21,157.5C 20.1955,154.304 20.3622,151.304 21.5,148.5C 21.8333,148.5 22.1667,148.5 22.5,148.5C 22.4614,149.756 22.9614,150.756 24,151.5C 24.2189,150.062 24.7189,148.729 25.5,147.5C 26.4892,151.107 26.8226,154.774 26.5,158.5 Z"/></g>
<g><path style="opacity:1" fill="#7c7386" d="M 21.5,148.5 C 20.3622,151.304 20.1955,154.304 21,157.5C 21.2022,155.744 21.7022,154.078 22.5,152.5C 23.1067,152.624 23.44,152.957 23.5,153.5C 22.5489,154.919 22.2155,156.585 22.5,158.5C 21.5,158.5 20.5,158.5 19.5,158.5C 19.1774,154.774 19.5108,151.107 20.5,147.5C 21.1067,147.624 21.44,147.957 21.5,148.5 Z"/></g>
<g><path style="opacity:1" fill="#181217" d="M 89.5,156.5 C 90.2389,156.369 90.9056,156.536 91.5,157C 90.2068,157.49 88.8734,157.657 87.5,157.5C 87.335,154.15 87.5017,150.817 88,147.5C 88.1805,150.695 88.6805,153.695 89.5,156.5 Z"/></g>
<g><path style="opacity:1" fill="#2b242b" d="M 109.5,147.5 C 108.993,148.859 107.993,149.859 106.5,150.5C 111.095,156.848 109.428,158.848 101.5,156.5C 102.265,154.705 102.932,152.872 103.5,151C 103.164,149.97 102.497,149.47 101.5,149.5C 103.635,147.631 106.302,146.964 109.5,147.5 Z"/></g>
<g><path style="opacity:1" fill="#aea6b2" d="M 104.5,153.5 C 105.376,153.369 106.043,153.702 106.5,154.5C 104.192,155.873 103.525,155.54 104.5,153.5 Z"/></g>
<g><path style="opacity:1" fill="#3d3544" d="M 98.5,147.5 C 97.4324,148.434 96.099,148.768 94.5,148.5C 94.5,149.833 94.5,151.167 94.5,152.5C 95.8333,152.5 97.1667,152.5 98.5,152.5C 95.8477,152.991 94.3477,154.658 94,157.5C 93.5045,155.527 93.3379,153.527 93.5,151.5C 93.5,150.167 93.5,148.833 93.5,147.5C 95.1667,147.5 96.8333,147.5 98.5,147.5 Z"/></g>
<g><path style="opacity:1" fill="#837a8f" d="M 109.5,147.5 C 106.302,146.964 103.635,147.631 101.5,149.5C 100.9,150.9 99.8999,151.9 98.5,152.5C 97.1667,152.5 95.8333,152.5 94.5,152.5C 94.5,151.167 94.5,149.833 94.5,148.5C 96.099,148.768 97.4324,148.434 98.5,147.5C 101.98,146.544 105.646,146.544 109.5,147.5 Z"/></g>
<g><path style="opacity:1" fill="#b4aac7" d="M 98.5,147.5 C 96.8333,147.5 95.1667,147.5 93.5,147.5C 93.5,148.833 93.5,150.167 93.5,151.5C 92.8386,150.282 92.1719,148.949 91.5,147.5C 90.914,147.709 90.414,148.043 90,148.5C 89.5026,151.146 89.3359,153.813 89.5,156.5C 88.6805,153.695 88.1805,150.695 88,147.5C 87.5017,150.817 87.335,154.15 87.5,157.5C 86.8444,158.278 86.0111,158.944 85,159.5C 84.2352,159.43 83.7352,159.097 83.5,158.5C 82.8333,157.833 82.1667,157.167 81.5,156.5C 81.2642,153.086 80.5975,149.753 79.5,146.5C 77.5235,152.858 76.5235,152.858 76.5,146.5C 75.5,146.5 74.5,146.5 73.5,146.5C 73.6653,150.182 73.4986,153.848 73,157.5C 69.8535,154.672 69.3535,151.672 71.5,148.5C 68.9135,147.52 66.2469,147.187 63.5,147.5C 66.3583,146.834 69.3583,146.167 72.5,145.5C 69.6922,142.978 66.8589,142.978 64,145.5C 62.8197,144.316 61.3197,143.649 59.5,143.5C 54.5423,143.626 49.5423,143.959 44.5,144.5C 46.444,145.851 48.6106,146.518 51,146.5C 54.7016,144.966 58.535,144.466 62.5,145C 61.7476,145.671 61.4142,146.504 61.5,147.5C 59.2776,147.178 57.4443,147.845 56,149.5C 55.5034,151.81 55.3367,154.143 55.5,156.5C 54.8333,157.167 54.1667,157.833 53.5,158.5C 52.7593,155.366 51.7593,152.366 50.5,149.5C 51.675,149.719 52.675,149.386 53.5,148.5C 50.9135,147.52 48.2469,147.187 45.5,147.5C 44.8333,147.5 44.1667,147.5 43.5,147.5C 42.1411,148.007 41.1411,149.007 40.5,150.5C 39.8182,149.757 39.1515,149.091 38.5,148.5C 37.791,147.596 36.791,147.263 35.5,147.5C 33.076,147.192 30.7427,147.526 28.5,148.5C 29.311,149.216 29.9777,150.05 30.5,151C 29.6057,152.396 28.9391,153.896 28.5,155.5C 28.5427,156.416 28.8761,157.083 29.5,157.5C 28.791,158.404 27.791,158.737 26.5,158.5C 26.8226,154.774 26.4892,151.107 25.5,147.5C 24.7189,148.729 24.2189,150.062 24,151.5C 22.9614,150.756 22.4614,149.756 22.5,148.5C 22.5,147.5 22.5,146.5 22.5,145.5C 28.2108,146.102 33.8774,146.102 39.5,145.5C 31.5807,144.005 23.5807,143.171 15.5,143C 22.1806,142.666 28.8473,142.166 35.5,141.5C 52.8192,142.278 70.1526,142.778 87.5,143C 91.7225,143.455 95.3891,144.955 98.5,147.5 Z"/></g>
<g><path style="opacity:1" fill="#28202b" d="M 83.5,158.5 C 83.1774,154.774 83.5108,151.107 84.5,147.5C 84.8333,149.333 85.1667,151.167 85.5,153C 85.4535,155.295 84.7868,157.129 83.5,158.5 Z"/></g>
<g><path style="opacity:1" fill="#201b1f" d="M 43.5,147.5 C 44.069,151.329 43.4023,154.663 41.5,157.5C 41.5674,156.041 41.2341,154.708 40.5,153.5C 40.44,152.957 40.1067,152.624 39.5,152.5C 38.7022,154.078 38.2022,155.744 38,157.5C 37.1955,154.304 37.3622,151.304 38.5,148.5C 39.1515,149.091 39.8182,149.757 40.5,150.5C 41.1411,149.007 42.1411,148.007 43.5,147.5 Z"/></g>
<g><path style="opacity:1" fill="#2d262e" d="M 35.5,147.5 C 35.2786,148.735 34.6119,149.735 33.5,150.5C 34.5134,153.188 35.5134,155.854 36.5,158.5C 34.2362,157.781 31.9029,157.448 29.5,157.5C 28.8761,157.083 28.5427,156.416 28.5,155.5C 28.9391,153.896 29.6057,152.396 30.5,151C 29.9777,150.05 29.311,149.216 28.5,148.5C 30.7427,147.526 33.076,147.192 35.5,147.5 Z"/></g>
<g><path style="opacity:1" fill="#958e94" d="M 31.5,152.5 C 33.6246,153.368 33.7913,154.368 32,155.5C 30.3167,154.824 30.1501,153.824 31.5,152.5 Z"/></g>
<g><path style="opacity:1" fill="#2d262e" d="M 81.5,156.5 C 81.6309,157.376 81.2975,158.043 80.5,158.5C 79.8333,157.167 79.1667,155.833 78.5,154.5C 77.4593,156.991 76.6259,156.991 76,154.5C 75.51,155.793 75.3433,157.127 75.5,158.5C 71.7844,157.681 68.1178,157.681 64.5,158.5C 64.1667,158.167 63.8333,157.833 63.5,157.5C 65.0761,155.021 66.0761,152.354 66.5,149.5C 64.8212,149.715 63.8212,149.048 63.5,147.5C 66.2469,147.187 68.9135,147.52 71.5,148.5C 69.3535,151.672 69.8535,154.672 73,157.5C 73.4986,153.848 73.6653,150.182 73.5,146.5C 74.5,146.5 75.5,146.5 76.5,146.5C 76.5235,152.858 77.5235,152.858 79.5,146.5C 80.5975,149.753 81.2642,153.086 81.5,156.5 Z"/></g>
<g><path style="opacity:1" fill="#b7afbd" d="M 67.5,153.5 C 70.1368,155.154 69.8034,155.654 66.5,155C 67.056,154.617 67.3893,154.117 67.5,153.5 Z"/></g>
<g><path style="opacity:1" fill="#28212b" d="M 45.5,147.5 C 48.2469,147.187 50.9135,147.52 53.5,148.5C 52.675,149.386 51.675,149.719 50.5,149.5C 51.7593,152.366 52.7593,155.366 53.5,158.5C 51.283,157.631 48.9496,157.298 46.5,157.5C 45.8333,157.5 45.5,157.167 45.5,156.5C 46.1171,154.32 47.1171,152.32 48.5,150.5C 47.675,149.614 46.675,149.281 45.5,149.5C 45.5,148.833 45.5,148.167 45.5,147.5 Z"/></g>
<g><path style="opacity:1" fill="#aca6ac" d="M 48.5,153.5 C 49.3764,153.369 50.0431,153.702 50.5,154.5C 48.1916,155.873 47.5249,155.54 48.5,153.5 Z"/></g>
<g><path style="opacity:1" fill="#756b7f" d="M 43.5,147.5 C 44.1667,147.5 44.8333,147.5 45.5,147.5C 45.5,148.167 45.5,148.833 45.5,149.5C 44.1667,151.833 44.1667,154.167 45.5,156.5C 45.5,157.167 45.8333,157.5 46.5,157.5C 44.8333,158.833 43.1667,158.833 41.5,157.5C 43.4023,154.663 44.069,151.329 43.5,147.5 Z"/></g>
<g><path style="opacity:1" fill="#b1a7be" d="M 45.5,149.5 C 46.675,149.281 47.675,149.614 48.5,150.5C 47.1171,152.32 46.1171,154.32 45.5,156.5C 44.1667,154.167 44.1667,151.833 45.5,149.5 Z"/></g>
<g><path style="opacity:1" fill="#93899e" d="M 35.5,147.5 C 36.791,147.263 37.791,147.596 38.5,148.5C 37.3622,151.304 37.1955,154.304 38,157.5C 38.2022,155.744 38.7022,154.078 39.5,152.5C 40.1067,152.624 40.44,152.957 40.5,153.5C 39.5489,154.919 39.2155,156.585 39.5,158.5C 38.5,158.5 37.5,158.5 36.5,158.5C 35.5134,155.854 34.5134,153.188 33.5,150.5C 34.6119,149.735 35.2786,148.735 35.5,147.5 Z"/></g>
<g><path style="opacity:1" fill="#4d4035" d="M 96.5,116.5 C 98.924,116.192 101.257,116.526 103.5,117.5C 101.604,118.466 99.604,118.799 97.5,118.5C 97.5,121.5 97.5,124.5 97.5,127.5C 99.5273,127.338 101.527,127.505 103.5,128C 101.19,128.497 98.8568,128.663 96.5,128.5C 96.5,124.5 96.5,120.5 96.5,116.5 Z"/></g>
<g><path style="opacity:1" fill="#3d3126" d="M 45.5,117.5 C 46.4794,120.625 46.8128,123.958 46.5,127.5C 48.8568,127.337 51.1902,127.503 53.5,128C 50.854,128.497 48.1873,128.664 45.5,128.5C 45.5,124.833 45.5,121.167 45.5,117.5 Z"/></g>
<g><path style="opacity:1" fill="#4a3d31" d="M 72.5,116.5 C 74.924,116.192 77.2573,116.526 79.5,117.5C 77.604,118.466 75.604,118.799 73.5,118.5C 73.5,121.5 73.5,124.5 73.5,127.5C 75.8568,127.337 78.1902,127.503 80.5,128C 77.854,128.497 75.1873,128.664 72.5,128.5C 72.5,124.5 72.5,120.5 72.5,116.5 Z"/></g>
<g><path style="opacity:1" fill="#fbfb73" d="M 71.5,100.5 C 71.2627,101.791 71.596,102.791 72.5,103.5C 72.33,104.822 72.6634,105.989 73.5,107C 67.5092,107.499 61.5092,107.666 55.5,107.5C 55.5,106.5 55.5,105.5 55.5,104.5C 55.5,104.167 55.5,103.833 55.5,103.5C 56.9313,102.22 57.5979,100.553 57.5,98.5C 58.4936,89.3483 58.8269,80.015 58.5,70.5C 62.5,70.5 66.5,70.5 70.5,70.5C 70.1726,80.6806 70.506,90.6806 71.5,100.5 Z"/></g>
<g><path style="opacity:1" fill="#45422b" d="M 56.5,68.5 C 60.8333,68.5 65.1667,68.5 69.5,68.5C 69.5,68.8333 69.5,69.1667 69.5,69.5C 65.5,69.5 61.5,69.5 57.5,69.5C 57.5,79.1667 57.5,88.8333 57.5,98.5C 57.5979,100.553 56.9313,102.22 55.5,103.5C 56.4069,92.5313 56.7402,81.5313 56.5,70.5C 56.5,70.1667 56.5,69.8333 56.5,69.5C 56.5,69.1667 56.5,68.8333 56.5,68.5 Z"/></g>
<g><path style="opacity:1" fill="#bcb95d" d="M 69.5,69.5 C 71.4753,79.4459 72.1419,89.7792 71.5,100.5C 70.506,90.6806 70.1726,80.6806 70.5,70.5C 66.5,70.5 62.5,70.5 58.5,70.5C 58.8269,80.015 58.4936,89.3483 57.5,98.5C 57.5,88.8333 57.5,79.1667 57.5,69.5C 61.5,69.5 65.5,69.5 69.5,69.5 Z"/></g>
<g><path style="opacity:1" fill="#958da5" d="M 18.5,63.5 C 18.5,65.5 18.5,67.5 18.5,69.5C 31.1667,69.5 43.8333,69.5 56.5,69.5C 56.5,69.8333 56.5,70.1667 56.5,70.5C 43.5,70.5 30.5,70.5 17.5,70.5C 17.1984,67.9407 17.5318,65.6074 18.5,63.5 Z"/></g>
<g><path style="opacity:1" fill="#394c56" d="M 101.5,47.5 C 105.694,54.119 107.361,61.4523 106.5,69.5C 95.1667,69.5 83.8333,69.5 72.5,69.5C 72.5,80.8333 72.5,92.1667 72.5,103.5C 71.596,102.791 71.2627,101.791 71.5,100.5C 72.1419,89.7792 71.4753,79.4459 69.5,69.5C 69.5,69.1667 69.5,68.8333 69.5,68.5C 72.5,68.5 75.5,68.5 78.5,68.5C 78.409,64.0437 77.909,59.7103 77,55.5C 79.0896,59.5994 80.2562,63.9328 80.5,68.5C 83.2469,68.8134 85.9135,68.48 88.5,67.5C 87.4601,63.7888 86.6268,60.1221 86,56.5C 88.2726,60.1536 89.4392,64.1536 89.5,68.5C 94.8333,68.5 100.167,68.5 105.5,68.5C 105.446,61.231 104.113,54.231 101.5,47.5 Z"/></g>
<g><path style="opacity:1" fill="#29494c" d="M 20.5,55.5 C 19.8005,59.7978 19.4672,64.1311 19.5,68.5C 24.1667,68.5 28.8333,68.5 33.5,68.5C 33.4714,63.7938 34.638,59.4605 37,55.5C 36.091,59.7103 35.591,64.0437 35.5,68.5C 37.8333,68.5 40.1667,68.5 42.5,68.5C 42.3354,65.4816 42.502,62.4816 43,59.5C 43.5079,57.0958 44.6745,56.4291 46.5,57.5C 44.4165,60.8307 43.4165,64.4974 43.5,68.5C 47.8333,68.5 52.1667,68.5 56.5,68.5C 56.5,68.8333 56.5,69.1667 56.5,69.5C 43.8333,69.5 31.1667,69.5 18.5,69.5C 18.5,67.5 18.5,65.5 18.5,63.5C 18.1107,60.4467 18.7773,57.78 20.5,55.5 Z"/></g>
<g><path style="opacity:1" fill="#3a525a" d="M 95.5,39.5 C 98.6472,41.3129 100.647,43.9796 101.5,47.5C 99.016,45.1997 97.016,42.5331 95.5,39.5 Z"/></g>
<g><path style="opacity:1" fill="#395259" d="M 81.5,30.5 C 87.2184,31.8889 91.8851,34.8889 95.5,39.5C 90.8077,36.4616 86.141,33.4616 81.5,30.5 Z"/></g>
<g><path style="opacity:1" fill="#3f9084" d="M 79.5,29.5 C 80.4916,29.3284 81.1583,29.6618 81.5,30.5C 86.141,33.4616 90.8077,36.4616 95.5,39.5C 97.016,42.5331 99.016,45.1997 101.5,47.5C 104.113,54.231 105.446,61.231 105.5,68.5C 100.167,68.5 94.8333,68.5 89.5,68.5C 89.4392,64.1536 88.2726,60.1536 86,56.5C 86.6268,60.1221 87.4601,63.7888 88.5,67.5C 85.9135,68.48 83.2469,68.8134 80.5,68.5C 80.2562,63.9328 79.0896,59.5994 77,55.5C 77.909,59.7103 78.409,64.0437 78.5,68.5C 75.5,68.5 72.5,68.5 69.5,68.5C 65.1667,68.5 60.8333,68.5 56.5,68.5C 52.1667,68.5 47.8333,68.5 43.5,68.5C 43.4165,64.4974 44.4165,60.8307 46.5,57.5C 44.6745,56.4291 43.5079,57.0958 43,59.5C 42.502,62.4816 42.3354,65.4816 42.5,68.5C 40.1667,68.5 37.8333,68.5 35.5,68.5C 35.591,64.0437 36.091,59.7103 37,55.5C 34.638,59.4605 33.4714,63.7938 33.5,68.5C 28.8333,68.5 24.1667,68.5 19.5,68.5C 19.4672,64.1311 19.8005,59.7978 20.5,55.5C 20.4152,52.3511 21.4152,49.6845 23.5,47.5C 38.0057,29.3333 56.6724,23.3333 79.5,29.5 Z"/></g>
<g><path style="opacity:1" fill="#354d55" d="M 79.5,29.5 C 56.6724,23.3333 38.0057,29.3333 23.5,47.5C 24.4396,45.3875 25.6063,43.3875 27,41.5C 41.9399,26.2231 59.4399,22.2231 79.5,29.5 Z"/></g>
<g><path style="opacity:1" fill="#bbb3d4" d="M 9.5,8.5 C 46.3371,8.16821 83.0038,8.50155 119.5,9.5C 117.543,10.0896 115.376,10.0896 113,9.5C 111.812,10.5634 111.312,11.8967 111.5,13.5C 79.26,13.8291 47.0933,13.4958 15,12.5C 14.3333,43.5 14.3333,74.5 15,105.5C 25.7517,106.487 36.585,106.82 47.5,106.5C 47.281,105.325 47.6143,104.325 48.5,103.5C 47.9727,105.086 48.6394,106.42 50.5,107.5C 38.1667,107.5 25.8333,107.5 13.5,107.5C 13.5,108.833 13.5,110.167 13.5,111.5C 12.2934,124.661 11.2934,137.995 10.5,151.5C 10.3968,157.911 10.8968,164.244 12,170.5C 12.5613,171.022 13.228,171.355 14,171.5C 28.777,169.803 43.6104,168.636 58.5,168C 55.1291,169.891 51.4624,171.058 47.5,171.5C 35.8523,172.499 24.1857,172.832 12.5,172.5C 11.2719,171.694 10.2719,170.694 9.5,169.5C 9.5,115.833 9.5,62.1667 9.5,8.5 Z"/></g>
<g><path style="opacity:1" fill="#837c95" d="M 9.5,8.5 C 45.9962,7.50155 82.6629,7.16821 119.5,7.5C 119.833,7.5 120.167,7.5 120.5,7.5C 120.832,61.0026 120.499,114.336 119.5,167.5C 119.5,114.833 119.5,62.1667 119.5,9.5C 83.0038,8.50155 46.3371,8.16821 9.5,8.5 Z"/></g>
<g><path style="opacity:1" fill="#c06768" d="M 7.5,6.5 C 7.5,60.1667 7.5,113.833 7.5,167.5C 6.50106,114.336 6.16772,61.0026 6.5,7.5C 5.5,7.5 4.5,7.5 3.5,7.5C 3.35449,62.534 3.52115,117.534 4,172.5C 3.66667,172.167 3.33333,171.833 3,171.5C 2.50001,115.168 2.33334,58.8343 2.5,2.5C 41.4238,4.27265 80.4238,5.10598 119.5,5C 81.9978,5.16744 44.6644,5.66744 7.5,6.5 Z"/></g>
<g><path style="opacity:1" fill="#be6766" d="M 115.5,174.5 C 116.167,174.5 116.833,174.5 117.5,174.5C 118.376,174.369 119.043,174.702 119.5,175.5C 106.167,176.167 92.8333,176.833 79.5,177.5C 95.5155,179.04 111.182,178.707 126.5,176.5C 125.738,178.262 124.404,179.262 122.5,179.5C 105.256,179.175 88.0896,179.508 71,180.5C 69.3831,179.464 69.2164,178.297 70.5,177C 72.8333,176.667 75.1667,176.333 77.5,176C 90.34,175.831 103.007,175.331 115.5,174.5 Z"/></g>
<g><path style="opacity:1" fill="#5d3836" d="M 6.5,181.5 C 22.6581,180.504 38.9915,180.17 55.5,180.5C 57.8102,181.325 59.8102,182.658 61.5,184.5C 58.652,183.228 55.652,182.395 52.5,182C 37.1703,181.5 21.837,181.333 6.5,181.5 Z"/></g>
<g><path style="opacity:1" fill="#604743" d="M 128.5,175.5 C 127.746,178.091 126.079,179.924 123.5,181C 107.5,181.333 91.5,181.667 75.5,182C 73.4817,182.505 71.4817,183.005 69.5,183.5C 70.347,182.034 71.6803,181.2 73.5,181C 90.0051,180.831 106.338,180.331 122.5,179.5C 124.404,179.262 125.738,178.262 126.5,176.5C 127.167,176.167 127.833,175.833 128.5,175.5 Z"/></g>
<g><path style="opacity:1" fill="#f8f8f8" d="M -0.5,172.5 C 0.14853,176.791 2.48186,179.791 6.5,181.5C 21.837,181.333 37.1703,181.5 52.5,182C 55.652,182.395 58.652,183.228 61.5,184.5C 62.5,185.833 63.5,187.167 64.5,188.5C 42.8333,188.5 21.1667,188.5 -0.5,188.5C -0.5,183.167 -0.5,177.833 -0.5,172.5 Z"/></g>
<g><path style="opacity:1" fill="#fbfcfb" d="M 128.5,173.5 C 128.833,173.5 129.167,173.5 129.5,173.5C 129.5,178.5 129.5,183.5 129.5,188.5C 108.167,188.5 86.8333,188.5 65.5,188.5C 66.8333,186.833 68.1667,185.167 69.5,183.5C 71.4817,183.005 73.4817,182.505 75.5,182C 91.5,181.667 107.5,181.333 123.5,181C 126.079,179.924 127.746,178.091 128.5,175.5C 128.5,174.833 128.5,174.167 128.5,173.5 Z"/></g>
<g><path style="opacity:1" fill="#634846" d="M 69.5,183.5 C 68.1667,185.167 66.8333,186.833 65.5,188.5C 65.1667,188.5 64.8333,188.5 64.5,188.5C 63.5,187.167 62.5,185.833 61.5,184.5C 63.0174,184.511 64.1841,185.177 65,186.5C 66.129,184.859 67.629,183.859 69.5,183.5 Z"/></g>
</svg>
